<!DOCTYPE svg PUBLIC "-//W3C//DTD SVG 1.1//EN" "http://www.w3.org/Graphics/SVG/1.1/DTD/svg11.dtd">
<!-- Uploaded to: SVG Repo, www.svgrepo.com, Transformed by: SVG Repo Mixer Tools -->
<svg version="1.1" id="Icons" xmlns="http://www.w3.org/2000/svg" xmlns:xlink="http://www.w3.org/1999/xlink" viewBox="0 0 32 32" xml:space="preserve" width="800px" height="800px" fill="#000000">
<g id="SVGRepo_bgCarrier" stroke-width="0"/>
<g id="SVGRepo_tracerCarrier" stroke-linecap="round" stroke-linejoin="round"/>
<g id="SVGRepo_iconCarrier"> <style type="text/css"> .st0{fill:none;stroke:#E6FF94;stroke-width:2;stroke-linecap:round;stroke-linejoin:round;stroke-miterlimit:10;} </style> <path class="st0" d="M27,6.5v7c0,0.8-0.7,1.5-1.5,1.5h0c-0.8,0-1.5-0.7-1.5-1.5v-7C24,5.7,24.7,5,25.5,5h0C26.3,5,27,5.7,27,6.5z"/> <path class="st0" d="M8,18.5v7C8,26.3,7.3,27,6.5,27h0C5.7,27,5,26.3,5,25.5v-7C5,17.7,5.7,17,6.5,17h0C7.3,17,8,17.7,8,18.5z"/> <circle class="st0" cx="15" cy="18" r="2"/> <path class="st0" d="M26,30H6c-2.2,0-4-1.8-4-4V6c0-2.2,1.8-4,4-4h20c2.2,0,4,1.8,4,4v20C30,28.2,28.2,30,26,30z"/> <line class="st0" x1="16" y1="16" x2="16" y2="2"/> <line class="st0" x1="16" y1="30" x2="16" y2="20"/> </g>
</svg>